<?xml version="1.0" standalone="no"?>
<!DOCTYPE svg PUBLIC "-//W3C//DTD SVG 20010904//EN"
 "http://www.w3.org/TR/2001/REC-SVG-20010904/DTD/svg10.dtd">
<svg version="1.0" xmlns="http://www.w3.org/2000/svg"
 width="704.000000pt" height="704.000000pt" viewBox="0 0 704.000000 704.000000"
 preserveAspectRatio="xMidYMid meet">
<metadata>
Created by potrace 1.14, written by Peter Selinger 2001-2017
</metadata>
<g transform="translate(0.000000,704.000000) scale(0.100000,-0.100000)"
fill="#000000" stroke="none">
<path d="M3135 7029 c-1323 -67 -2028 -404 -2190 -1044 -30 -116 -48 -325 -29
-332 28 -11 3122 4 3254 16 597 51 996 138 1349 295 493 219 792 578 818 984
l6 92 -1529 -2 c-841 0 -1596 -4 -1679 -9z"/>
<path d="M2017 4910 c-632 -107 -1158 -915 -1327 -2040 -42 -280 -43 -310 -47
-1614 l-4 -1259 72 7 c226 23 433 125 627 310 116 112 189 200 282 342 220
337 388 800 469 1294 57 340 54 275 58 1673 l4 1297 -43 -1 c-24 -1 -65 -5
-91 -9z"/>
<path d="M3880 4749 c-327 -27 -633 -166 -872 -397 -99 -96 -144 -151 -221
-274 -110 -175 -183 -403 -194 -601 l-6 -108 824 4 c790 3 828 4 919 24 189
41 361 113 510 211 369 243 606 651 622 1072 l3 75 -745 1 c-410 1 -788 -2
-840 -7z"/>
</g>
</svg>
